<svg width="75" height="75" viewBox="0 0 75 75" fill="none" xmlns="http://www.w3.org/2000/svg">
<g id="chat-bot" clip-path="url(#clip0_66_1694)">
<path id="accent" d="M65.4255 61.4362C69.832 61.4362 73.4042 57.864 73.4042 53.4575C73.4042 49.051 69.832 45.4788 65.4255 45.4788C61.019 45.4788 57.4468 49.051 57.4468 53.4575C57.4468 57.864 61.019 61.4362 65.4255 61.4362Z" fill="url(#paint0_linear_66_1694)"/>
<path id="accent_2" d="M7.97872 61.4362C12.3852 61.4362 15.9574 57.864 15.9574 53.4575C15.9574 49.051 12.3852 45.4788 7.97872 45.4788C3.5722 45.4788 0 49.051 0 53.4575C0 57.864 3.5722 61.4362 7.97872 61.4362Z" fill="url(#paint1_linear_66_1694)"/>
<path id="accent_3" fill-rule="evenodd" clip-rule="evenodd" d="M23.9361 17.9499C22.0787 17.2912 20.7446 15.5164 20.7446 13.4363C20.7446 10.7969 22.8925 8.64905 25.5319 8.64905C28.1712 8.64905 30.3191 10.7969 30.3191 13.4363C30.3191 15.5164 28.9851 17.2912 27.1276 17.9499V32.7128H23.9361V17.9499Z" fill="url(#paint2_linear_66_1694)"/>
<path id="accent_4" d="M23.9361 50.266C25.6988 50.266 27.1276 48.8372 27.1276 47.0745C27.1276 45.3119 25.6988 43.8831 23.9361 43.8831C22.1735 43.8831 20.7446 45.3119 20.7446 47.0745C20.7446 48.8372 22.1735 50.266 23.9361 50.266Z" fill="url(#paint3_linear_66_1694)"/>
<path id="accent_5" d="M43.0849 58.2446H30.3189C28.5563 58.2446 27.1274 59.6735 27.1274 61.4361C27.1274 63.1988 28.5563 64.6276 30.3189 64.6276H43.0849C44.8475 64.6276 46.2764 63.1988 46.2764 61.4361C46.2764 59.6735 44.8475 58.2446 43.0849 58.2446Z" fill="url(#paint4_linear_66_1694)"/>
<path id="accent_6" d="M49.4679 50.266C51.2305 50.266 52.6593 48.8372 52.6593 47.0745C52.6593 45.3119 51.2305 43.8831 49.4679 43.8831C47.7052 43.8831 46.2764 45.3119 46.2764 47.0745C46.2764 48.8372 47.7052 50.266 49.4679 50.266Z" fill="url(#paint5_linear_66_1694)"/>
<g id="glass" filter="url(#filter0_bi_66_1694)">
<path d="M7.97852 40.6915C7.97852 36.2856 11.5514 32.7128 15.9572 32.7128H57.4466C61.8524 32.7128 65.4253 36.2856 65.4253 40.6915V66.2234C65.4253 70.6293 61.8524 74.2021 57.4466 74.2021H15.9572C11.5514 74.2021 7.97852 70.6293 7.97852 66.2234V40.6915Z" fill="url(#paint6_linear_66_1694)" fill-opacity="0.2"/>
<path d="M8.47852 40.6915C8.47852 36.5618 11.8275 33.2128 15.9572 33.2128H57.4466C61.5763 33.2128 64.9253 36.5618 64.9253 40.6915V66.2234C64.9253 70.3531 61.5763 73.7021 57.4466 73.7021H15.9572C11.8275 73.7021 8.47852 70.3531 8.47852 66.2234V40.6915Z" stroke="url(#paint7_linear_66_1694)" stroke-opacity="0.1"/>
</g>
<path id="accent_7" d="M71.1245 3.76147H43.7689C42.5099 3.76147 41.4893 8.86467 41.4893 15.1597C41.4893 21.4547 42.5099 26.5578 43.7689 26.5578H71.1245C72.3836 26.5578 73.4042 21.4547 73.4042 15.1597C73.4042 8.86467 72.3836 3.76147 71.1245 3.76147Z" fill="url(#paint8_linear_66_1694)"/>
<g id="glass_2" filter="url(#filter1_bi_66_1694)">
<path d="M69.4148 0.797852H45.4787C42.3941 0.797852 39.8936 3.29838 39.8936 6.38296V32.5851C39.8936 33.1564 40.1983 33.683 40.6946 33.9686C40.9404 34.1106 41.2148 34.1808 41.4893 34.1808C41.767 34.1808 42.0462 34.1074 42.2936 33.9622L49.9005 29.5213H69.4148C72.4994 29.5213 74.9999 27.0207 74.9999 23.9361V6.38296C74.9999 3.29838 72.4994 0.797852 69.4148 0.797852Z" fill="url(#paint9_linear_66_1694)" fill-opacity="0.2"/>
<path d="M40.9448 33.5357L40.944 33.5352C40.6024 33.3386 40.3936 32.9771 40.3936 32.5851V6.38296C40.3936 3.57453 42.6702 1.29785 45.4787 1.29785H69.4148C72.2233 1.29785 74.4999 3.57453 74.4999 6.38296V23.9361C74.4999 26.7446 72.2233 29.0213 69.4148 29.0213H49.9005H49.7652L49.6484 29.0895L42.0415 33.5304L42.0404 33.531C41.8711 33.6304 41.6795 33.6808 41.4893 33.6808C41.3001 33.6808 41.1123 33.6325 40.9448 33.5357Z" stroke="url(#paint10_linear_66_1694)" stroke-opacity="0.1"/>
</g>
<path id="accent_8" d="M23.9361 50.266C25.6988 50.266 27.1276 48.8372 27.1276 47.0745C27.1276 45.3119 25.6988 43.8831 23.9361 43.8831C22.1735 43.8831 20.7446 45.3119 20.7446 47.0745C20.7446 48.8372 22.1735 50.266 23.9361 50.266Z" fill="url(#paint11_linear_66_1694)"/>
<path id="accent_9" d="M43.0849 58.2446H30.3189C28.5563 58.2446 27.1274 59.6735 27.1274 61.4361C27.1274 63.1988 28.5563 64.6276 30.3189 64.6276H43.0849C44.8475 64.6276 46.2764 63.1988 46.2764 61.4361C46.2764 59.6735 44.8475 58.2446 43.0849 58.2446Z" fill="url(#paint12_linear_66_1694)"/>
<path id="accent_10" d="M49.4679 50.266C51.2305 50.266 52.6593 48.8372 52.6593 47.0745C52.6593 45.3119 51.2305 43.8831 49.4679 43.8831C47.7052 43.8831 46.2764 45.3119 46.2764 47.0745C46.2764 48.8372 47.7052 50.266 49.4679 50.266Z" fill="url(#paint13_linear_66_1694)"/>
<g id="accent_11" filter="url(#filter2_i_66_1694)">
<path d="M57.4466 19.9469H47.8721C46.9908 19.9469 46.2764 20.6613 46.2764 21.5426C46.2764 22.424 46.9908 23.1384 47.8721 23.1384H57.4466C58.3279 23.1384 59.0423 22.424 59.0423 21.5426C59.0423 20.6613 58.3279 19.9469 57.4466 19.9469Z" fill="white" fill-opacity="0.16"/>
</g>
<g id="accent_12" filter="url(#filter3_i_66_1694)">
<path d="M67.021 7.18091H47.8721C46.9908 7.18091 46.2764 7.89535 46.2764 8.77665C46.2764 9.65795 46.9908 10.3724 47.8721 10.3724H67.021C67.9024 10.3724 68.6168 9.65795 68.6168 8.77665C68.6168 7.89535 67.9024 7.18091 67.021 7.18091Z" fill="white" fill-opacity="0.16"/>
</g>
<g id="accent_13" filter="url(#filter4_i_66_1694)">
<path d="M67.021 13.5638H47.8721C46.9908 13.5638 46.2764 14.2783 46.2764 15.1596C46.2764 16.0409 46.9908 16.7553 47.8721 16.7553H67.021C67.9024 16.7553 68.6168 16.0409 68.6168 15.1596C68.6168 14.2783 67.9024 13.5638 67.021 13.5638Z" fill="white" fill-opacity="0.16"/>
</g>
</g>
<defs>
<filter id="filter0_bi_66_1694" x="4.97852" y="29.7128" width="63.4468" height="47.4894" filterUnits="userSpaceOnUse" color-interpolation-filters="sRGB">
<feFlood flood-opacity="0" result="BackgroundImageFix"/>
<feGaussianBlur in="BackgroundImageFix" stdDeviation="1.5"/>
<feComposite in2="SourceAlpha" operator="in" result="effect1_backgroundBlur_66_1694"/>
<feBlend mode="normal" in="SourceGraphic" in2="effect1_backgroundBlur_66_1694" result="shape"/>
<feColorMatrix in="SourceAlpha" type="matrix" values="0 0 0 0 0 0 0 0 0 0 0 0 0 0 0 0 0 0 127 0" result="hardAlpha"/>
<feOffset dy="0.5"/>
<feGaussianBlur stdDeviation="1"/>
<feComposite in2="hardAlpha" operator="arithmetic" k2="-1" k3="1"/>
<feColorMatrix type="matrix" values="0 0 0 0 1 0 0 0 0 1 0 0 0 0 1 0 0 0 0.4 0"/>
<feBlend mode="normal" in2="shape" result="effect2_innerShadow_66_1694"/>
</filter>
<filter id="filter1_bi_66_1694" x="36.8936" y="-2.20215" width="41.1064" height="39.3829" filterUnits="userSpaceOnUse" color-interpolation-filters="sRGB">
<feFlood flood-opacity="0" result="BackgroundImageFix"/>
<feGaussianBlur in="BackgroundImageFix" stdDeviation="1.5"/>
<feComposite in2="SourceAlpha" operator="in" result="effect1_backgroundBlur_66_1694"/>
<feBlend mode="normal" in="SourceGraphic" in2="effect1_backgroundBlur_66_1694" result="shape"/>
<feColorMatrix in="SourceAlpha" type="matrix" values="0 0 0 0 0 0 0 0 0 0 0 0 0 0 0 0 0 0 127 0" result="hardAlpha"/>
<feOffset dy="0.5"/>
<feGaussianBlur stdDeviation="1"/>
<feComposite in2="hardAlpha" operator="arithmetic" k2="-1" k3="1"/>
<feColorMatrix type="matrix" values="0 0 0 0 1 0 0 0 0 1 0 0 0 0 1 0 0 0 0.4 0"/>
<feBlend mode="normal" in2="shape" result="effect2_innerShadow_66_1694"/>
</filter>
<filter id="filter2_i_66_1694" x="46.2764" y="19.9469" width="12.7659" height="3.69153" filterUnits="userSpaceOnUse" color-interpolation-filters="sRGB">
<feFlood flood-opacity="0" result="BackgroundImageFix"/>
<feBlend mode="normal" in="SourceGraphic" in2="BackgroundImageFix" result="shape"/>
<feColorMatrix in="SourceAlpha" type="matrix" values="0 0 0 0 0 0 0 0 0 0 0 0 0 0 0 0 0 0 127 0" result="hardAlpha"/>
<feOffset dy="0.5"/>
<feGaussianBlur stdDeviation="0.25"/>
<feComposite in2="hardAlpha" operator="arithmetic" k2="-1" k3="1"/>
<feColorMatrix type="matrix" values="0 0 0 0 1 0 0 0 0 1 0 0 0 0 1 0 0 0 0.4 0"/>
<feBlend mode="normal" in2="shape" result="effect1_innerShadow_66_1694"/>
</filter>
<filter id="filter3_i_66_1694" x="46.2764" y="7.18091" width="22.3405" height="3.69153" filterUnits="userSpaceOnUse" color-interpolation-filters="sRGB">
<feFlood flood-opacity="0" result="BackgroundImageFix"/>
<feBlend mode="normal" in="SourceGraphic" in2="BackgroundImageFix" result="shape"/>
<feColorMatrix in="SourceAlpha" type="matrix" values="0 0 0 0 0 0 0 0 0 0 0 0 0 0 0 0 0 0 127 0" result="hardAlpha"/>
<feOffset dy="0.5"/>
<feGaussianBlur stdDeviation="0.25"/>
<feComposite in2="hardAlpha" operator="arithmetic" k2="-1" k3="1"/>
<feColorMatrix type="matrix" values="0 0 0 0 1 0 0 0 0 1 0 0 0 0 1 0 0 0 0.4 0"/>
<feBlend mode="normal" in2="shape" result="effect1_innerShadow_66_1694"/>
</filter>
<filter id="filter4_i_66_1694" x="46.2764" y="13.5638" width="22.3405" height="3.69153" filterUnits="userSpaceOnUse" color-interpolation-filters="sRGB">
<feFlood flood-opacity="0" result="BackgroundImageFix"/>
<feBlend mode="normal" in="SourceGraphic" in2="BackgroundImageFix" result="shape"/>
<feColorMatrix in="SourceAlpha" type="matrix" values="0 0 0 0 0 0 0 0 0 0 0 0 0 0 0 0 0 0 127 0" result="hardAlpha"/>
<feOffset dy="0.5"/>
<feGaussianBlur stdDeviation="0.25"/>
<feComposite in2="hardAlpha" operator="arithmetic" k2="-1" k3="1"/>
<feColorMatrix type="matrix" values="0 0 0 0 1 0 0 0 0 1 0 0 0 0 1 0 0 0 0.4 0"/>
<feBlend mode="normal" in2="shape" result="effect1_innerShadow_66_1694"/>
</filter>
<linearGradient id="paint0_linear_66_1694" x1="57.4468" y1="45.4788" x2="76.2442" y2="50.2518" gradientUnits="userSpaceOnUse">
<stop stop-color="#75A5FF"/>
<stop offset="0.703125" stop-color="#2339FF"/>
</linearGradient>
<linearGradient id="paint1_linear_66_1694" x1="0" y1="45.4788" x2="18.7974" y2="50.2518" gradientUnits="userSpaceOnUse">
<stop stop-color="#75A5FF"/>
<stop offset="0.703125" stop-color="#2339FF"/>
</linearGradient>
<linearGradient id="paint2_linear_66_1694" x1="20.7446" y1="8.64905" x2="32.6289" y2="9.8497" gradientUnits="userSpaceOnUse">
<stop stop-color="#75A5FF"/>
<stop offset="0.703125" stop-color="#2339FF"/>
</linearGradient>
<linearGradient id="paint3_linear_66_1694" x1="20.7446" y1="43.8831" x2="28.2636" y2="45.7923" gradientUnits="userSpaceOnUse">
<stop stop-color="#75A5FF"/>
<stop offset="0.703125" stop-color="#2339FF"/>
</linearGradient>
<linearGradient id="paint4_linear_66_1694" x1="27.1274" y1="58.2446" x2="42.3218" y2="69.819" gradientUnits="userSpaceOnUse">
<stop stop-color="#75A5FF"/>
<stop offset="0.703125" stop-color="#2339FF"/>
</linearGradient>
<linearGradient id="paint5_linear_66_1694" x1="46.2764" y1="43.8831" x2="53.7953" y2="45.7923" gradientUnits="userSpaceOnUse">
<stop stop-color="#75A5FF"/>
<stop offset="0.703125" stop-color="#2339FF"/>
</linearGradient>
<linearGradient id="paint6_linear_66_1694" x1="7.97852" y1="32.7128" x2="72.0877" y2="55.2522" gradientUnits="userSpaceOnUse">
<stop stop-color="#83E9FF"/>
<stop offset="0.453125" stop-color="#85A0FF"/>
</linearGradient>
<linearGradient id="paint7_linear_66_1694" x1="9.77373" y1="34.5986" x2="65.4253" y2="34.5986" gradientUnits="userSpaceOnUse">
<stop stop-color="#3CDEB6"/>
<stop offset="0.65625" stop-color="#364AFF"/>
</linearGradient>
<linearGradient id="paint8_linear_66_1694" x1="41.4893" y1="3.76147" x2="77.0182" y2="16.3915" gradientUnits="userSpaceOnUse">
<stop stop-color="#75A5FF"/>
<stop offset="0.703125" stop-color="#2339FF"/>
</linearGradient>
<linearGradient id="paint9_linear_66_1694" x1="39.8936" y1="0.797852" x2="80.9842" y2="11.7702" gradientUnits="userSpaceOnUse">
<stop stop-color="#83E9FF"/>
<stop offset="0.453125" stop-color="#85A0FF"/>
</linearGradient>
<linearGradient id="paint10_linear_66_1694" x1="40.9906" y1="2.31526" x2="74.9999" y2="2.31526" gradientUnits="userSpaceOnUse">
<stop stop-color="#3CDEB6"/>
<stop offset="0.65625" stop-color="#364AFF"/>
</linearGradient>
<linearGradient id="paint11_linear_66_1694" x1="20.7446" y1="43.8831" x2="28.2636" y2="45.7923" gradientUnits="userSpaceOnUse">
<stop stop-color="#75A5FF"/>
<stop offset="0.703125" stop-color="#2339FF"/>
</linearGradient>
<linearGradient id="paint12_linear_66_1694" x1="27.1274" y1="58.2446" x2="42.3218" y2="69.819" gradientUnits="userSpaceOnUse">
<stop stop-color="#75A5FF"/>
<stop offset="0.703125" stop-color="#2339FF"/>
</linearGradient>
<linearGradient id="paint13_linear_66_1694" x1="46.2764" y1="43.8831" x2="53.7953" y2="45.7923" gradientUnits="userSpaceOnUse">
<stop stop-color="#75A5FF"/>
<stop offset="0.703125" stop-color="#2339FF"/>
</linearGradient>
<clipPath id="clip0_66_1694">
<rect width="75" height="75" fill="white"/>
</clipPath>
</defs>
</svg>
