<svg width="73" height="63" viewBox="0 0 73 63" fill="none" xmlns="http://www.w3.org/2000/svg">
<g id="Group">
<path id="accent" d="M70.875 1.8125H2.125V45.5625H70.875V1.8125Z" fill="url(#paint0_linear_212_667)"/>
<path id="accent_2" d="M45.875 46.875H27.125V62.7502H45.875V46.875Z" fill="url(#paint1_linear_212_667)"/>
<g id="Vector" filter="url(#filter0_bi_212_667)">
<path d="M55.25 58.0625H17.75C16.887 58.0625 16.1875 58.762 16.1875 59.625V61.1875C16.1875 62.0505 16.887 62.75 17.75 62.75H55.25C56.113 62.75 56.8125 62.0505 56.8125 61.1875V59.625C56.8125 58.762 56.113 58.0625 55.25 58.0625Z" fill="url(#paint2_linear_212_667)" fill-opacity="0.2"/>
<path d="M17.75 58.5625H55.25C55.8368 58.5625 56.3125 59.0382 56.3125 59.625V61.1875C56.3125 61.7743 55.8368 62.25 55.25 62.25H17.75C17.1632 62.25 16.6875 61.7743 16.6875 61.1875V59.625C16.6875 59.0382 17.1632 58.5625 17.75 58.5625Z" stroke="url(#paint3_linear_212_667)" stroke-opacity="0.1"/>
</g>
<g id="glass" filter="url(#filter1_bi_212_667)">
<path d="M69.2515 3.06055H3.74854V44.3142H69.2515V3.06055Z" fill="url(#paint4_linear_212_667)" fill-opacity="0.2"/>
</g>
<g id="glass_2" filter="url(#filter2_bi_212_667)">
<path d="M69.3125 53.375H3.6875C1.96094 53.375 0.5625 51.9766 0.5625 50.25V3.375C0.5625 1.64844 1.96094 0.25 3.6875 0.25H69.3125C71.0391 0.25 72.4375 1.64844 72.4375 3.375V50.25C72.4375 51.9766 71.0391 53.375 69.3125 53.375ZM3.6875 4.9375V42.4375C3.6875 43.3 4.3875 44 5.25 44H67.75C68.6125 44 69.3125 43.3 69.3125 42.4375V4.9375C69.3125 4.075 68.6125 3.375 67.75 3.375H5.25C4.3875 3.375 3.6875 4.075 3.6875 4.9375Z" fill="url(#paint5_linear_212_667)" fill-opacity="0.2"/>
<path d="M69.3125 52.875H3.6875C2.23708 52.875 1.0625 51.7004 1.0625 50.25V3.375C1.0625 1.92458 2.23708 0.75 3.6875 0.75H69.3125C70.7629 0.75 71.9375 1.92458 71.9375 3.375V50.25C71.9375 51.7004 70.7629 52.875 69.3125 52.875ZM3.1875 4.9375V42.4375C3.1875 43.5761 4.11136 44.5 5.25 44.5H67.75C68.8886 44.5 69.8125 43.5761 69.8125 42.4375V4.9375C69.8125 3.79886 68.8886 2.875 67.75 2.875H5.25C4.11136 2.875 3.1875 3.79886 3.1875 4.9375Z" stroke="url(#paint6_linear_212_667)" stroke-opacity="0.1"/>
</g>
<g id="detail" filter="url(#filter3_i_212_667)">
<path d="M30.8968 26.1656L23.4077 18.6765L29.7921 12.2921C30.3999 11.6796 30.3952 10.689 29.7812 10.0827C29.5218 9.82649 29.1812 9.66711 28.8171 9.63586L10.0671 8.07338C9.20772 7.99838 8.4499 8.63588 8.37646 9.49525C8.36865 9.58119 8.36865 9.66867 8.37646 9.75461L9.93896 28.5046C10.014 29.364 10.7702 30.0015 11.6312 29.9265C11.9952 29.8952 12.3358 29.7374 12.5952 29.4796L18.9796 23.0952L26.4687 30.5843C27.7108 31.7827 29.689 31.7484 30.8874 30.5077C32.0577 29.2968 32.0577 27.3765 30.8874 26.1656H30.8983H30.8968Z" fill="white" fill-opacity="0.16"/>
</g>
</g>
<defs>
<filter id="filter0_bi_212_667" x="13.1875" y="55.0625" width="46.625" height="10.6875" filterUnits="userSpaceOnUse" color-interpolation-filters="sRGB">
<feFlood flood-opacity="0" result="BackgroundImageFix"/>
<feGaussianBlur in="BackgroundImageFix" stdDeviation="1.5"/>
<feComposite in2="SourceAlpha" operator="in" result="effect1_backgroundBlur_212_667"/>
<feBlend mode="normal" in="SourceGraphic" in2="effect1_backgroundBlur_212_667" result="shape"/>
<feColorMatrix in="SourceAlpha" type="matrix" values="0 0 0 0 0 0 0 0 0 0 0 0 0 0 0 0 0 0 127 0" result="hardAlpha"/>
<feOffset dy="0.5"/>
<feGaussianBlur stdDeviation="1"/>
<feComposite in2="hardAlpha" operator="arithmetic" k2="-1" k3="1"/>
<feColorMatrix type="matrix" values="0 0 0 0 1 0 0 0 0 1 0 0 0 0 1 0 0 0 0.4 0"/>
<feBlend mode="normal" in2="shape" result="effect2_innerShadow_212_667"/>
</filter>
<filter id="filter1_bi_212_667" x="0.748535" y="0.0605469" width="71.5029" height="47.2537" filterUnits="userSpaceOnUse" color-interpolation-filters="sRGB">
<feFlood flood-opacity="0" result="BackgroundImageFix"/>
<feGaussianBlur in="BackgroundImageFix" stdDeviation="1.5"/>
<feComposite in2="SourceAlpha" operator="in" result="effect1_backgroundBlur_212_667"/>
<feBlend mode="normal" in="SourceGraphic" in2="effect1_backgroundBlur_212_667" result="shape"/>
<feColorMatrix in="SourceAlpha" type="matrix" values="0 0 0 0 0 0 0 0 0 0 0 0 0 0 0 0 0 0 127 0" result="hardAlpha"/>
<feOffset dy="0.5"/>
<feGaussianBlur stdDeviation="1"/>
<feComposite in2="hardAlpha" operator="arithmetic" k2="-1" k3="1"/>
<feColorMatrix type="matrix" values="0 0 0 0 1 0 0 0 0 1 0 0 0 0 1 0 0 0 0.4 0"/>
<feBlend mode="normal" in2="shape" result="effect2_innerShadow_212_667"/>
</filter>
<filter id="filter2_bi_212_667" x="-2.4375" y="-2.75" width="77.875" height="59.125" filterUnits="userSpaceOnUse" color-interpolation-filters="sRGB">
<feFlood flood-opacity="0" result="BackgroundImageFix"/>
<feGaussianBlur in="BackgroundImageFix" stdDeviation="1.5"/>
<feComposite in2="SourceAlpha" operator="in" result="effect1_backgroundBlur_212_667"/>
<feBlend mode="normal" in="SourceGraphic" in2="effect1_backgroundBlur_212_667" result="shape"/>
<feColorMatrix in="SourceAlpha" type="matrix" values="0 0 0 0 0 0 0 0 0 0 0 0 0 0 0 0 0 0 127 0" result="hardAlpha"/>
<feOffset dy="0.5"/>
<feGaussianBlur stdDeviation="1"/>
<feComposite in2="hardAlpha" operator="arithmetic" k2="-1" k3="1"/>
<feColorMatrix type="matrix" values="0 0 0 0 1 0 0 0 0 1 0 0 0 0 1 0 0 0 0.4 0"/>
<feBlend mode="normal" in2="shape" result="effect2_innerShadow_212_667"/>
</filter>
<filter id="filter3_i_212_667" x="8.37061" y="8.06738" width="23.3945" height="23.8938" filterUnits="userSpaceOnUse" color-interpolation-filters="sRGB">
<feFlood flood-opacity="0" result="BackgroundImageFix"/>
<feBlend mode="normal" in="SourceGraphic" in2="BackgroundImageFix" result="shape"/>
<feColorMatrix in="SourceAlpha" type="matrix" values="0 0 0 0 0 0 0 0 0 0 0 0 0 0 0 0 0 0 127 0" result="hardAlpha"/>
<feOffset dy="0.5"/>
<feGaussianBlur stdDeviation="0.25"/>
<feComposite in2="hardAlpha" operator="arithmetic" k2="-1" k3="1"/>
<feColorMatrix type="matrix" values="0 0 0 0 1 0 0 0 0 1 0 0 0 0 1 0 0 0 0.4 0"/>
<feBlend mode="normal" in2="shape" result="effect1_innerShadow_212_667"/>
</filter>
<linearGradient id="paint0_linear_212_667" x1="2.125" y1="1.8125" x2="76.4918" y2="31.4859" gradientUnits="userSpaceOnUse">
<stop stop-color="#75A5FF"/>
<stop offset="0.703125" stop-color="#2339FF"/>
</linearGradient>
<linearGradient id="paint1_linear_212_667" x1="27.125" y1="46.875" x2="48.6959" y2="53.3441" gradientUnits="userSpaceOnUse">
<stop stop-color="#75A5FF"/>
<stop offset="0.703125" stop-color="#2339FF"/>
</linearGradient>
<linearGradient id="paint2_linear_212_667" x1="16.1875" y1="58.0625" x2="24.9061" y2="77.2488" gradientUnits="userSpaceOnUse">
<stop stop-color="#83E9FF"/>
<stop offset="0.453125" stop-color="#85A0FF"/>
</linearGradient>
<linearGradient id="paint3_linear_212_667" x1="17.457" y1="58.2756" x2="56.8125" y2="58.2756" gradientUnits="userSpaceOnUse">
<stop stop-color="#3CDEB6"/>
<stop offset="0.65625" stop-color="#364AFF"/>
</linearGradient>
<linearGradient id="paint4_linear_212_667" x1="3.74854" y1="3.06055" x2="74.3996" y2="31.5452" gradientUnits="userSpaceOnUse">
<stop stop-color="#83E9FF"/>
<stop offset="0.453125" stop-color="#85A0FF"/>
</linearGradient>
<linearGradient id="paint5_linear_212_667" x1="0.5625" y1="0.25" x2="81.1743" y2="27.9431" gradientUnits="userSpaceOnUse">
<stop stop-color="#83E9FF"/>
<stop offset="0.453125" stop-color="#85A0FF"/>
</linearGradient>
<linearGradient id="paint6_linear_212_667" x1="2.80859" y1="2.66477" x2="72.4375" y2="2.66477" gradientUnits="userSpaceOnUse">
<stop stop-color="#3CDEB6"/>
<stop offset="0.65625" stop-color="#364AFF"/>
</linearGradient>
</defs>
</svg>
