<svg width="240" height="79" viewBox="0 0 240 79" fill="none" xmlns="http://www.w3.org/2000/svg">
<g id="logo" clip-path="url(#clip0_202_477)">
<path id="Vector" d="M126.035 45.4668L124.467 62.5084L145.961 73.3711L167.456 61.8694V40.144L156.037 44.2974L143.274 40.144L139.916 27.0449L136.557 40.4635L126.035 45.4668Z" fill="url(#paint0_linear_202_477)"/>
<path id="Vector_2" d="M9.44747 78.9809L0.0906796 79.0001L0 38.4056L9.33999 32.2298L9.44747 78.9809ZM7.42565 35.7059L1.92442 39.3736L2.00838 77.1662L7.51969 77.1534L7.42565 35.7059Z" fill="white"/>
<path id="Vector_3" d="M13.1988 38.2554L21.7864 38.2394L21.8032 46.0414L36.6344 58.4472L36.5874 38.2106L45.175 38.1947L45.2657 78.9138L36.5504 78.9329L36.5303 69.6677L21.8301 57.6293L21.8771 78.9649L13.2894 78.9809L13.1988 38.2618V38.2554ZM15.2105 77.1406L19.9527 77.131L19.899 53.6644L38.4513 68.8051L38.4715 77.0959L43.3413 77.0863L43.2573 40.0253L38.5151 40.0349L38.5655 62.5271L19.8822 46.8401L19.8654 40.0733L15.1232 40.0829L15.2071 77.1438L15.2105 77.1406Z" fill="white"/>
<path id="Vector_4" d="M50.8678 33.3324L79.8953 33.2717C81.9037 34.243 82.9146 36.0705 82.9179 38.751L82.9515 54.0514L65.2892 64.6329L65.269 54.9396L73.6518 49.7415L73.6317 40.6584L59.2136 40.6871L59.2875 73.7257L50.9685 78.8631L50.8644 33.3292L50.8678 33.3324Z" fill="url(#paint1_linear_202_477)"/>
<path id="Vector_5" d="M89.8252 33.2495L117.57 33.192L117.657 71.8983C117.318 72.8727 116.334 73.3647 114.712 73.3679L89.9125 73.419C87.5212 73.4254 86.3223 72.1666 86.3155 69.6458L86.2383 35.3901C86.9604 33.9651 88.156 33.2527 89.8218 33.2495H89.8252ZM94.5842 40.1888L94.6446 66.4605L109.318 66.4318L109.257 40.16L94.5842 40.1888Z" fill="url(#paint2_linear_202_477)"/>
<path id="Vector_6" d="M174.277 33.0703L197.474 33.0224L204.54 40.3228L183.14 40.3675L183.157 47.3771L192.319 47.358L198.871 54.5976L183.174 54.6296L183.2 66.2111L197.105 66.1824L204.104 73.2399L174.371 73.3006L174.28 33.0703H174.277Z" fill="url(#paint3_linear_202_477)"/>
<path id="Vector_7" d="M216.302 57.5434L216.339 73.3902L208.02 78.5276L207.755 34.6327L216.272 42.5465L216.286 48.521L224.114 53.5019L230.704 49.406L230.684 40.3229L219.661 40.3452L211.315 32.9874L236.944 32.9362C238.952 33.9075 239.963 35.735 239.966 38.4155L240 53.6552L231.49 58.1217L239.96 63.4668L239.983 74.256L232.689 78.5979L232.665 67.9908L216.302 57.5402V57.5434Z" fill="url(#paint4_linear_202_477)"/>
<path id="Vector_8" d="M135.395 48.4093C136.524 48.3774 137.219 47.0866 137.817 45.7927C138.834 43.5818 138.314 40.5211 138.203 38.1089C138.099 35.8725 137.887 33.4955 138.599 31.3293C139.744 33.6936 139.415 36.7671 140.574 39.2751C142.593 43.6393 156.661 48.5083 151.368 48.4604C150.327 48.4508 145.095 54.9876 148.312 50.6873C148.527 54.0611 148.648 53.8822 149.32 52.6042L149.655 72.0931C166.784 64.7449 171.375 37.6904 170.814 33.4348C169.806 25.767 159.731 25.4475 162.922 15.5912C154.888 23.2686 164.476 33.5785 155.382 37.7926C158.723 33.4348 156.708 28.6424 152.356 25.4571C153.088 28.6648 153.252 31.3709 149.709 32.1472C147.694 32.5881 145.645 30.6456 145.414 28.8245C145.239 27.4475 145.786 26.0609 146.592 24.9044C149.33 20.9682 153.095 17.4187 155.042 12.9554C157.061 8.33558 155.979 2.49848 151.002 6.10352e-05C155.969 9.31961 142.3 12.7445 135.909 21.1535C131.876 26.4603 131.825 36.8182 132.191 39.8214C124.745 37.3262 133.535 29.9172 130.176 20.6519C129.169 28.3197 123.123 26.7223 121.444 33.4316C121.444 33.4316 122.787 48.7671 135.395 48.4061V48.4093Z" fill="url(#paint5_linear_202_477)"/>
<path id="Vector_9" d="M135.885 51.6458C141.743 49.4157 138.317 40.5243 138.203 38.1089C138.099 35.8725 138.196 36.2399 138.908 34.0738C139.58 38.2272 139.415 36.7671 140.574 39.2751C142.592 43.6393 144.389 60.7992 149.655 60.272C156.036 59.633 149.655 52.2847 158.051 46.8534C155.029 58.6746 163.425 55.7991 163.046 65.058L169.763 56.1122C170.028 50.4509 167.969 44.1441 167.455 40.0323C167.025 36.6233 165.689 33.2207 163.687 30.0482C164.288 33.406 164.127 36.7863 161.981 39.6649C157.954 45.0643 150.458 46.6745 145.89 40.9684C143.412 37.8725 142.172 34.0003 141.937 30.2143C141.649 25.5594 145.286 21.8149 148.214 18.4603C150.273 16.0992 152.251 13.5018 152.758 10.4858C152.369 12.8021 147.657 15.4155 145.877 16.7318C143.13 18.767 140.288 20.8692 138.344 23.3932C136.03 26.3964 135.318 30.4827 134.985 34.0961C134.727 36.9428 136.413 41.9652 134.102 44.0259C132.799 45.1857 130.747 45.4828 129.064 44.8694C126.878 44.0706 125.843 41.863 124.537 40.2208C125.014 42.6233 125.867 45.077 127.217 47.3965C127.217 47.3965 129.168 54.1985 135.885 51.6426V51.6458Z" fill="url(#paint6_linear_202_477)"/>
<path id="Vector_10" d="M141.437 76.1186L121.545 63.2975L121.478 33.2462L129.179 39.2047L129.226 59.4412L141.867 67.3997L141.803 39.6648L149.736 34.3452L149.81 67.5052L162.801 59.2495L162.754 38.8309L170.686 32.9618L170.753 62.9524L150.471 76.0995L141.437 76.1186Z" fill="#191925"/>
<path id="Vector_11" d="M156.053 16.9682C155.382 18.6519 154.478 19.1247 152.974 19.933C151.335 20.8148 151.063 22.9235 152.547 24.3292C152.893 24.6583 153.333 24.9203 153.82 24.9554C156.497 25.1503 156.46 18.5209 156.053 16.9682Z" fill="url(#paint7_linear_202_477)"/>
<path id="Vector_12" d="M131.184 60.5916L142.72 67.9399C146.354 66.9047 147.157 60.3424 144.493 56.1219C141.3 51.058 138.354 48.6107 139.405 43.9525C135.627 48.8343 142.599 55.6522 137.988 58.6555C138.579 53.8727 135.876 51.2273 132.604 51.2273C136.211 54.9973 132.124 57.1443 131.184 60.5948V60.5916Z" fill="url(#paint8_linear_202_477)"/>
</g>
<defs>
<linearGradient id="paint0_linear_202_477" x1="123.627" y1="12.4218" x2="155.997" y2="74.7284" gradientUnits="userSpaceOnUse">
<stop offset="0.26" stop-color="#51BDFF"/>
<stop offset="0.31" stop-color="#45A4FA"/>
<stop offset="0.42" stop-color="#2965ED"/>
<stop offset="0.57" stop-color="#0008DC"/>
<stop offset="0.59" stop-color="#0012D1"/>
<stop offset="0.67" stop-color="#0034B1"/>
<stop offset="0.75" stop-color="#004F97"/>
<stop offset="0.83" stop-color="#006285"/>
<stop offset="0.91" stop-color="#006D7A"/>
<stop offset="1" stop-color="#007177"/>
</linearGradient>
<linearGradient id="paint1_linear_202_477" x1="75.3949" y1="11.2492" x2="59.2214" y2="79.6026" gradientUnits="userSpaceOnUse">
<stop offset="0.439236" stop-color="#3EB2E7"/>
<stop offset="0.657986" stop-color="#0047AF"/>
<stop offset="0.866319" stop-color="#6C20D2"/>
</linearGradient>
<linearGradient id="paint2_linear_202_477" x1="115.105" y1="13.8021" x2="95.2405" y2="80.2741" gradientUnits="userSpaceOnUse">
<stop offset="0.434027" stop-color="#3EB2E7"/>
<stop offset="0.678819" stop-color="#0047AF"/>
<stop offset="0.871527" stop-color="#6C20D2"/>
</linearGradient>
<linearGradient id="paint3_linear_202_477" x1="199.476" y1="16.591" x2="181.968" y2="85.3478" gradientUnits="userSpaceOnUse">
<stop offset="0.137331" stop-color="#57CBF0"/>
<stop offset="0.470551" stop-color="#0B80D5"/>
<stop offset="0.664783" stop-color="#0046AD"/>
<stop offset="0.845486" stop-color="#6C20D2"/>
</linearGradient>
<linearGradient id="paint4_linear_202_477" x1="230.714" y1="28.572" x2="218.5" y2="79.5832" gradientUnits="userSpaceOnUse">
<stop offset="0.0434024" stop-color="#57CBF0"/>
<stop offset="0.43" stop-color="#3EB2E7"/>
<stop offset="0.53" stop-color="#0B80D5"/>
<stop offset="0.67" stop-color="#0046AD"/>
<stop offset="1" stop-color="#6C20D2"/>
</linearGradient>
<linearGradient id="paint5_linear_202_477" x1="160.372" y1="81.2306" x2="137.719" y2="-2.01061" gradientUnits="userSpaceOnUse">
<stop offset="0.32" stop-color="#57CBF0"/>
<stop offset="0.4" stop-color="#3EB2E7"/>
<stop offset="0.53" stop-color="#0B80D5"/>
<stop offset="0.7" stop-color="#0047AF"/>
<stop offset="0.71" stop-color="#0046AD"/>
<stop offset="0.84" stop-color="#6C20D2"/>
</linearGradient>
<linearGradient id="paint6_linear_202_477" x1="124.534" y1="37.7735" x2="169.786" y2="37.7735" gradientUnits="userSpaceOnUse">
<stop offset="0.32" stop-color="#57CBF0"/>
<stop offset="0.4" stop-color="#3EB2E7"/>
<stop offset="0.53" stop-color="#0B80D5"/>
<stop offset="0.7" stop-color="#0047AF"/>
<stop offset="0.71" stop-color="#0046AD"/>
<stop offset="0.928819" stop-color="#6C20D2"/>
</linearGradient>
<linearGradient id="paint7_linear_202_477" x1="165.296" y1="6.35787" x2="151.922" y2="26.7903" gradientUnits="userSpaceOnUse">
<stop offset="0.220486" stop-color="#57CBF0"/>
<stop offset="0.4" stop-color="#3EB2E7"/>
<stop offset="0.53" stop-color="#0B80D5"/>
<stop offset="0.7" stop-color="#0047AF"/>
<stop offset="0.855902" stop-color="#6C20D2"/>
</linearGradient>
<linearGradient id="paint8_linear_202_477" x1="158.925" y1="85.5502" x2="132.875" y2="45.0072" gradientUnits="userSpaceOnUse">
<stop offset="0.32" stop-color="#57CBF0"/>
<stop offset="0.4" stop-color="#3EB2E7"/>
<stop offset="0.53" stop-color="#0B80D5"/>
<stop offset="0.741319" stop-color="#6C20D2"/>
</linearGradient>
<clipPath id="clip0_202_477">
<rect width="240" height="79" fill="white"/>
</clipPath>
</defs>
</svg>
