<svg width="220" height="220" viewBox="0 0 220 220" fill="none" xmlns="http://www.w3.org/2000/svg">
<g filter="url(#filter0_d_62_1674)">
<circle cx="110" cy="106" r="50" fill="url(#paint0_linear_62_1674)"/>
</g>
<g clip-path="url(#clip0_62_1674)">
<path d="M134.064 125.34C138.177 125.34 141.511 122.006 141.511 117.894C141.511 113.781 138.177 110.447 134.064 110.447C129.951 110.447 126.617 113.781 126.617 117.894C126.617 122.006 129.951 125.34 134.064 125.34Z" fill="url(#paint1_linear_62_1674)"/>
<path d="M80.4468 125.34C84.5596 125.34 87.8936 122.006 87.8936 117.894C87.8936 113.781 84.5596 110.447 80.4468 110.447C76.3341 110.447 73 113.781 73 117.894C73 122.006 76.3341 125.34 80.4468 125.34Z" fill="url(#paint2_linear_62_1674)"/>
<path fill-rule="evenodd" clip-rule="evenodd" d="M95.3404 84.7533C93.6068 84.1385 92.3617 82.4821 92.3617 80.5406C92.3617 78.0772 94.3664 76.0725 96.8298 76.0725C99.2932 76.0725 101.298 78.0772 101.298 80.5406C101.298 82.4821 100.053 84.1385 98.3191 84.7533V98.532H95.3404V84.7533Z" fill="url(#paint3_linear_62_1674)"/>
<path d="M95.3404 114.915C96.9856 114.915 98.3191 113.581 98.3191 111.936C98.3191 110.291 96.9856 108.958 95.3404 108.958C93.6953 108.958 92.3617 110.291 92.3617 111.936C92.3617 113.581 93.6953 114.915 95.3404 114.915Z" fill="url(#paint4_linear_62_1674)"/>
<path d="M113.213 122.362H101.298C99.6527 122.362 98.3191 123.695 98.3191 125.341C98.3191 126.986 99.6527 128.319 101.298 128.319H113.213C114.858 128.319 116.191 126.986 116.191 125.341C116.191 123.695 114.858 122.362 113.213 122.362Z" fill="url(#paint5_linear_62_1674)"/>
<path d="M119.17 114.915C120.815 114.915 122.149 113.581 122.149 111.936C122.149 110.291 120.815 108.958 119.17 108.958C117.525 108.958 116.192 110.291 116.192 111.936C116.192 113.581 117.525 114.915 119.17 114.915Z" fill="url(#paint6_linear_62_1674)"/>
<g filter="url(#filter1_bi_62_1674)">
<path d="M80.4468 105.979C80.4468 101.867 83.7815 98.532 87.8936 98.532H126.617C130.729 98.532 134.064 101.867 134.064 105.979V129.809C134.064 133.921 130.729 137.255 126.617 137.255H87.8936C83.7815 137.255 80.4468 133.921 80.4468 129.809V105.979Z" fill="url(#paint7_linear_62_1674)" fill-opacity="0.2"/>
<path d="M80.9468 105.979C80.9468 102.143 84.0576 99.032 87.8936 99.032H126.617C130.453 99.032 133.564 102.143 133.564 105.979V129.809C133.564 133.645 130.453 136.755 126.617 136.755H87.8936C84.0576 136.755 80.9468 133.645 80.9468 129.809V105.979Z" stroke="url(#paint8_linear_62_1674)" stroke-opacity="0.1"/>
</g>
<path d="M139.383 71.5107H113.851C112.676 71.5107 111.723 76.2737 111.723 82.1491C111.723 88.0244 112.676 92.7874 113.851 92.7874H139.383C140.558 92.7874 141.511 88.0244 141.511 82.1491C141.511 76.2737 140.558 71.5107 139.383 71.5107Z" fill="url(#paint9_linear_62_1674)"/>
<g filter="url(#filter2_bi_62_1674)">
<path d="M137.787 68.7446H115.447C112.568 68.7446 110.234 71.0785 110.234 73.9574V98.4127C110.234 98.9459 110.518 99.4374 110.982 99.704C111.211 99.8365 111.467 99.9021 111.723 99.9021C111.983 99.9021 112.243 99.8336 112.474 99.698L119.574 95.5531H137.787C140.666 95.5531 143 93.2193 143 90.3404V73.9574C143 71.0785 140.666 68.7446 137.787 68.7446Z" fill="url(#paint10_linear_62_1674)" fill-opacity="0.2"/>
<path d="M111.232 99.2711L111.231 99.2706C110.923 99.0931 110.734 98.7666 110.734 98.4127V73.9574C110.734 71.3546 112.844 69.2446 115.447 69.2446H137.787C140.39 69.2446 142.5 71.3546 142.5 73.9574V90.3404C142.5 92.9432 140.39 95.0531 137.787 95.0531H119.574H119.439L119.322 95.1213L112.222 99.2662L112.221 99.2669C112.068 99.3566 111.895 99.4021 111.723 99.4021C111.552 99.4021 111.383 99.3584 111.232 99.2711Z" stroke="url(#paint11_linear_62_1674)" stroke-opacity="0.1"/>
</g>
<path d="M95.3404 114.915C96.9856 114.915 98.3191 113.581 98.3191 111.936C98.3191 110.291 96.9856 108.958 95.3404 108.958C93.6953 108.958 92.3617 110.291 92.3617 111.936C92.3617 113.581 93.6953 114.915 95.3404 114.915Z" fill="url(#paint12_linear_62_1674)"/>
<path d="M113.213 122.362H101.298C99.6527 122.362 98.3191 123.695 98.3191 125.341C98.3191 126.986 99.6527 128.319 101.298 128.319H113.213C114.858 128.319 116.191 126.986 116.191 125.341C116.191 123.695 114.858 122.362 113.213 122.362Z" fill="url(#paint13_linear_62_1674)"/>
<path d="M119.17 114.915C120.815 114.915 122.149 113.581 122.149 111.936C122.149 110.291 120.815 108.958 119.17 108.958C117.525 108.958 116.192 110.291 116.192 111.936C116.192 113.581 117.525 114.915 119.17 114.915Z" fill="url(#paint14_linear_62_1674)"/>
<g filter="url(#filter3_i_62_1674)">
<path d="M126.617 86.6172H117.681C116.858 86.6172 116.192 87.284 116.192 88.1065C116.192 88.9291 116.858 89.5959 117.681 89.5959H126.617C127.44 89.5959 128.106 88.9291 128.106 88.1065C128.106 87.284 127.44 86.6172 126.617 86.6172Z" fill="white" fill-opacity="0.16"/>
</g>
<g filter="url(#filter4_i_62_1674)">
<path d="M135.553 74.7021H117.681C116.858 74.7021 116.192 75.369 116.192 76.1915C116.192 77.0141 116.858 77.6809 117.681 77.6809H135.553C136.376 77.6809 137.043 77.0141 137.043 76.1915C137.043 75.369 136.376 74.7021 135.553 74.7021Z" fill="white" fill-opacity="0.16"/>
</g>
<g filter="url(#filter5_i_62_1674)">
<path d="M135.553 80.6597H117.681C116.858 80.6597 116.192 81.3265 116.192 82.149C116.192 82.9716 116.858 83.6384 117.681 83.6384H135.553C136.376 83.6384 137.043 82.9716 137.043 82.149C137.043 81.3265 136.376 80.6597 135.553 80.6597Z" fill="white" fill-opacity="0.16"/>
</g>
</g>
<g filter="url(#filter6_d_62_1674)">
<circle cx="110" cy="106" r="58" stroke="url(#paint15_linear_62_1674)" stroke-width="4" shape-rendering="crispEdges"/>
</g>
<defs>
<filter id="filter0_d_62_1674" x="10" y="6" width="200" height="200" filterUnits="userSpaceOnUse" color-interpolation-filters="sRGB">
<feFlood flood-opacity="0" result="BackgroundImageFix"/>
<feColorMatrix in="SourceAlpha" type="matrix" values="0 0 0 0 0 0 0 0 0 0 0 0 0 0 0 0 0 0 127 0" result="hardAlpha"/>
<feOffset/>
<feGaussianBlur stdDeviation="25"/>
<feComposite in2="hardAlpha" operator="out"/>
<feColorMatrix type="matrix" values="0 0 0 0 0.341176 0 0 0 0 0.796078 0 0 0 0 0.941176 0 0 0 1 0"/>
<feBlend mode="normal" in2="BackgroundImageFix" result="effect1_dropShadow_62_1674"/>
<feBlend mode="normal" in="SourceGraphic" in2="effect1_dropShadow_62_1674" result="shape"/>
</filter>
<filter id="filter1_bi_62_1674" x="77.4468" y="95.532" width="59.617" height="44.7234" filterUnits="userSpaceOnUse" color-interpolation-filters="sRGB">
<feFlood flood-opacity="0" result="BackgroundImageFix"/>
<feGaussianBlur in="BackgroundImageFix" stdDeviation="1.5"/>
<feComposite in2="SourceAlpha" operator="in" result="effect1_backgroundBlur_62_1674"/>
<feBlend mode="normal" in="SourceGraphic" in2="effect1_backgroundBlur_62_1674" result="shape"/>
<feColorMatrix in="SourceAlpha" type="matrix" values="0 0 0 0 0 0 0 0 0 0 0 0 0 0 0 0 0 0 127 0" result="hardAlpha"/>
<feOffset dy="0.5"/>
<feGaussianBlur stdDeviation="1"/>
<feComposite in2="hardAlpha" operator="arithmetic" k2="-1" k3="1"/>
<feColorMatrix type="matrix" values="0 0 0 0 1 0 0 0 0 1 0 0 0 0 1 0 0 0 0.4 0"/>
<feBlend mode="normal" in2="shape" result="effect2_innerShadow_62_1674"/>
</filter>
<filter id="filter2_bi_62_1674" x="107.234" y="65.7446" width="38.766" height="37.1575" filterUnits="userSpaceOnUse" color-interpolation-filters="sRGB">
<feFlood flood-opacity="0" result="BackgroundImageFix"/>
<feGaussianBlur in="BackgroundImageFix" stdDeviation="1.5"/>
<feComposite in2="SourceAlpha" operator="in" result="effect1_backgroundBlur_62_1674"/>
<feBlend mode="normal" in="SourceGraphic" in2="effect1_backgroundBlur_62_1674" result="shape"/>
<feColorMatrix in="SourceAlpha" type="matrix" values="0 0 0 0 0 0 0 0 0 0 0 0 0 0 0 0 0 0 127 0" result="hardAlpha"/>
<feOffset dy="0.5"/>
<feGaussianBlur stdDeviation="1"/>
<feComposite in2="hardAlpha" operator="arithmetic" k2="-1" k3="1"/>
<feColorMatrix type="matrix" values="0 0 0 0 1 0 0 0 0 1 0 0 0 0 1 0 0 0 0.4 0"/>
<feBlend mode="normal" in2="shape" result="effect2_innerShadow_62_1674"/>
</filter>
<filter id="filter3_i_62_1674" x="116.192" y="86.6172" width="11.9149" height="3.4787" filterUnits="userSpaceOnUse" color-interpolation-filters="sRGB">
<feFlood flood-opacity="0" result="BackgroundImageFix"/>
<feBlend mode="normal" in="SourceGraphic" in2="BackgroundImageFix" result="shape"/>
<feColorMatrix in="SourceAlpha" type="matrix" values="0 0 0 0 0 0 0 0 0 0 0 0 0 0 0 0 0 0 127 0" result="hardAlpha"/>
<feOffset dy="0.5"/>
<feGaussianBlur stdDeviation="0.25"/>
<feComposite in2="hardAlpha" operator="arithmetic" k2="-1" k3="1"/>
<feColorMatrix type="matrix" values="0 0 0 0 1 0 0 0 0 1 0 0 0 0 1 0 0 0 0.4 0"/>
<feBlend mode="normal" in2="shape" result="effect1_innerShadow_62_1674"/>
</filter>
<filter id="filter4_i_62_1674" x="116.192" y="74.7021" width="20.8511" height="3.4787" filterUnits="userSpaceOnUse" color-interpolation-filters="sRGB">
<feFlood flood-opacity="0" result="BackgroundImageFix"/>
<feBlend mode="normal" in="SourceGraphic" in2="BackgroundImageFix" result="shape"/>
<feColorMatrix in="SourceAlpha" type="matrix" values="0 0 0 0 0 0 0 0 0 0 0 0 0 0 0 0 0 0 127 0" result="hardAlpha"/>
<feOffset dy="0.5"/>
<feGaussianBlur stdDeviation="0.25"/>
<feComposite in2="hardAlpha" operator="arithmetic" k2="-1" k3="1"/>
<feColorMatrix type="matrix" values="0 0 0 0 1 0 0 0 0 1 0 0 0 0 1 0 0 0 0.4 0"/>
<feBlend mode="normal" in2="shape" result="effect1_innerShadow_62_1674"/>
</filter>
<filter id="filter5_i_62_1674" x="116.192" y="80.6597" width="20.8511" height="3.4787" filterUnits="userSpaceOnUse" color-interpolation-filters="sRGB">
<feFlood flood-opacity="0" result="BackgroundImageFix"/>
<feBlend mode="normal" in="SourceGraphic" in2="BackgroundImageFix" result="shape"/>
<feColorMatrix in="SourceAlpha" type="matrix" values="0 0 0 0 0 0 0 0 0 0 0 0 0 0 0 0 0 0 127 0" result="hardAlpha"/>
<feOffset dy="0.5"/>
<feGaussianBlur stdDeviation="0.25"/>
<feComposite in2="hardAlpha" operator="arithmetic" k2="-1" k3="1"/>
<feColorMatrix type="matrix" values="0 0 0 0 1 0 0 0 0 1 0 0 0 0 1 0 0 0 0.4 0"/>
<feBlend mode="normal" in2="shape" result="effect1_innerShadow_62_1674"/>
</filter>
<filter id="filter6_d_62_1674" x="0" y="0" width="220" height="220" filterUnits="userSpaceOnUse" color-interpolation-filters="sRGB">
<feFlood flood-opacity="0" result="BackgroundImageFix"/>
<feColorMatrix in="SourceAlpha" type="matrix" values="0 0 0 0 0 0 0 0 0 0 0 0 0 0 0 0 0 0 127 0" result="hardAlpha"/>
<feOffset dy="4"/>
<feGaussianBlur stdDeviation="25"/>
<feComposite in2="hardAlpha" operator="out"/>
<feColorMatrix type="matrix" values="0 0 0 0 0.0666667 0 0 0 0 0 0 0 0 0 0 0 0 0 0.25 0"/>
<feBlend mode="normal" in2="BackgroundImageFix" result="effect1_dropShadow_62_1674"/>
<feBlend mode="normal" in="SourceGraphic" in2="effect1_dropShadow_62_1674" result="shape"/>
</filter>
<linearGradient id="paint0_linear_62_1674" x1="135" y1="62.7568" x2="110" y2="156" gradientUnits="userSpaceOnUse">
<stop stop-color="white"/>
</linearGradient>
<linearGradient id="paint1_linear_62_1674" x1="126.617" y1="110.447" x2="144.161" y2="114.902" gradientUnits="userSpaceOnUse">
<stop stop-color="#75A5FF"/>
<stop offset="0.703125" stop-color="#2339FF"/>
</linearGradient>
<linearGradient id="paint2_linear_62_1674" x1="73" y1="110.447" x2="90.5442" y2="114.902" gradientUnits="userSpaceOnUse">
<stop stop-color="#75A5FF"/>
<stop offset="0.703125" stop-color="#2339FF"/>
</linearGradient>
<linearGradient id="paint3_linear_62_1674" x1="92.3617" y1="76.0725" x2="103.454" y2="77.1931" gradientUnits="userSpaceOnUse">
<stop stop-color="#75A5FF"/>
<stop offset="0.703125" stop-color="#2339FF"/>
</linearGradient>
<linearGradient id="paint4_linear_62_1674" x1="92.3617" y1="108.958" x2="99.3794" y2="110.739" gradientUnits="userSpaceOnUse">
<stop stop-color="#75A5FF"/>
<stop offset="0.703125" stop-color="#2339FF"/>
</linearGradient>
<linearGradient id="paint5_linear_62_1674" x1="98.3191" y1="122.362" x2="112.5" y2="133.165" gradientUnits="userSpaceOnUse">
<stop stop-color="#75A5FF"/>
<stop offset="0.703125" stop-color="#2339FF"/>
</linearGradient>
<linearGradient id="paint6_linear_62_1674" x1="116.192" y1="108.958" x2="123.209" y2="110.739" gradientUnits="userSpaceOnUse">
<stop stop-color="#75A5FF"/>
<stop offset="0.703125" stop-color="#2339FF"/>
</linearGradient>
<linearGradient id="paint7_linear_62_1674" x1="80.4468" y1="98.532" x2="140.282" y2="119.569" gradientUnits="userSpaceOnUse">
<stop stop-color="#83E9FF"/>
<stop offset="0.453125" stop-color="#85A0FF"/>
</linearGradient>
<linearGradient id="paint8_linear_62_1674" x1="82.1223" y1="100.292" x2="134.064" y2="100.292" gradientUnits="userSpaceOnUse">
<stop stop-color="#3CDEB6"/>
<stop offset="0.65625" stop-color="#364AFF"/>
</linearGradient>
<linearGradient id="paint9_linear_62_1674" x1="111.723" y1="71.5107" x2="144.884" y2="83.2988" gradientUnits="userSpaceOnUse">
<stop stop-color="#75A5FF"/>
<stop offset="0.703125" stop-color="#2339FF"/>
</linearGradient>
<linearGradient id="paint10_linear_62_1674" x1="110.234" y1="68.7446" x2="148.585" y2="78.9855" gradientUnits="userSpaceOnUse">
<stop stop-color="#83E9FF"/>
<stop offset="0.453125" stop-color="#85A0FF"/>
</linearGradient>
<linearGradient id="paint11_linear_62_1674" x1="111.258" y1="70.1609" x2="143" y2="70.1609" gradientUnits="userSpaceOnUse">
<stop stop-color="#3CDEB6"/>
<stop offset="0.65625" stop-color="#364AFF"/>
</linearGradient>
<linearGradient id="paint12_linear_62_1674" x1="92.3617" y1="108.958" x2="99.3794" y2="110.739" gradientUnits="userSpaceOnUse">
<stop stop-color="#75A5FF"/>
<stop offset="0.703125" stop-color="#2339FF"/>
</linearGradient>
<linearGradient id="paint13_linear_62_1674" x1="98.3191" y1="122.362" x2="112.5" y2="133.165" gradientUnits="userSpaceOnUse">
<stop stop-color="#75A5FF"/>
<stop offset="0.703125" stop-color="#2339FF"/>
</linearGradient>
<linearGradient id="paint14_linear_62_1674" x1="116.192" y1="108.958" x2="123.209" y2="110.739" gradientUnits="userSpaceOnUse">
<stop stop-color="#75A5FF"/>
<stop offset="0.703125" stop-color="#2339FF"/>
</linearGradient>
<linearGradient id="paint15_linear_62_1674" x1="73.2747" y1="46" x2="149.003" y2="166" gradientUnits="userSpaceOnUse">
<stop stop-color="#0034B1"/>
<stop offset="1" stop-color="#6C20D2"/>
</linearGradient>
<clipPath id="clip0_62_1674">
<rect x="73" y="68" width="70" height="70" rx="35" fill="white"/>
</clipPath>
</defs>
</svg>
